/* XPM */
static char *_4e29df8863c4f28efb9a1814a3feeb3[] = {
/* columns rows colors chars-per-pixel */
"64 64 256 2 ",
"   c #2E1A0A",
".  c #281608",
"X  c #331E0C",
"o  c #301E13",
"O  c #35210D",
"+  c #3B250E",
"@  c #3D280F",
"#  c #362211",
"$  c #3B2511",
"%  c #3D2912",
"&  c #35281A",
"*  c #39322A",
"=  c #37332F",
"-  c #432C13",
";  c #4A2C14",
":  c #4B3315",
">  c #493217",
",  c #533B1C",
"<  c #573A19",
"1  c #502C11",
"2  c #6C3217",
"3  c #543C26",
"4  c #443E35",
"5  c #453728",
"6  c #703728",
"7  c #5D411C",
"8  c #68451D",
"9  c #7B4C1A",
"0  c #5C4423",
"q  c #574839",
"w  c #504835",
"e  c #674A25",
"r  c #724C24",
"t  c #6C512C",
"y  c #6A582B",
"u  c #74542B",
"i  c #7B5627",
"p  c #6B5537",
"a  c #7C5C33",
"s  c #765936",
"d  c #694931",
"f  c #786838",
"g  c #78783D",
"h  c #6D6A33",
"j  c #55524C",
"k  c #5B5B58",
"l  c #514D49",
"z  c #6B5950",
"x  c #7A6A47",
"c  c #7A7347",
"v  c #6D6554",
"b  c #6D6759",
"n  c #726955",
"m  c #736C5B",
"M  c #776955",
"N  c #797259",
"B  c #686765",
"V  c #736E61",
"C  c #786E6D",
"Z  c #767163",
"A  c #7A7364",
"S  c #7A766A",
"D  c #7A776A",
"F  c #7C7C74",
"G  c #7C7D7A",
"H  c #747674",
"J  c #6F7070",
"K  c #5F605E",
"L  c #B01E1C",
"P  c #8D301C",
"I  c #AE291D",
"U  c #9A3127",
"Y  c #B92927",
"T  c #BA362B",
"R  c #BB3836",
"E  c #AD3330",
"W  c #B21F25",
"Q  c #CD181F",
"!  c #C31D1F",
"~  c #CD1A21",
"^  c #C41D20",
"/  c #C72528",
"(  c #C3342D",
")  c #C43637",
"_  c #C92D33",
"`  c #845C2B",
"'  c #825726",
"]  c #855B34",
"[  c #984F31",
"{  c #A94938",
"}  c #B74637",
"|  c #A85738",
" . c #A74933",
".. c #88632D",
"X. c #856335",
"o. c #8B6534",
"O. c #85643B",
"+. c #8B673A",
"@. c #8D6A3A",
"#. c #876B39",
"$. c #926C3C",
"%. c #936836",
"&. c #88743C",
"*. c #94713E",
"=. c #99743A",
"-. c #8E722E",
";. c #955C2B",
":. c #A53D40",
">. c #C63D42",
",. c #90534A",
"<. c #B94847",
"1. c #A75745",
"2. c #AF5551",
"3. c #8A6A43",
"4. c #926E41",
"5. c #9A6A46",
"6. c #82744B",
"7. c #8C7B4C",
"8. c #897645",
"9. c #957342",
"0. c #9A7544",
"q. c #94754A",
"w. c #9A764A",
"e. c #9C7A4B",
"r. c #967A47",
"t. c #8A7D54",
"y. c #867958",
"u. c #997C53",
"i. c #806F5A",
"p. c #A37B45",
"a. c #A37D4B",
"s. c #AC7748",
"d. c #A57C55",
"f. c #AF6852",
"g. c #BA5F60",
"h. c #857B6A",
"j. c #9A7C63",
"k. c #827D75",
"l. c #956F6D",
"z. c #AF716F",
"x. c #C84A4F",
"c. c #C76F73",
"v. c #CB5E61",
"b. c #7E807B",
"n. c #8F803F",
"m. c #98854B",
"M. c #8D815C",
"N. c #8B8357",
"B. c #978658",
"V. c #938E4F",
"C. c #A4814E",
"Z. c #A9834D",
"A. c #A58253",
"S. c #AA8454",
"D. c #AD8955",
"F. c #AA8659",
"G. c #AD8B5C",
"H. c #A58759",
"J. c #B18C5B",
"K. c #B08C54",
"L. c #A5955D",
"P. c #B3905F",
"I. c #8B8667",
"U. c #948964",
"Y. c #9A8C64",
"T. c #938B6B",
"R. c #968667",
"E. c #9D916C",
"W. c #9D9167",
"Q. c #82837C",
"!. c #888476",
"~. c #948E73",
"^. c #9C9474",
"/. c #989478",
"(. c #8C906E",
"). c #AE8D61",
"_. c #A38A65",
"`. c #B18E62",
"'. c #A59468",
"]. c #B39364",
"[. c #B5956A",
"{. c #B69A6C",
"}. c #B9996C",
"|. c #A39974",
" X c #A39C7B",
".X c #A69878",
"XX c #B69A76",
"oX c #B3847B",
"OX c #A8A07B",
"+X c #BDA375",
"@X c #B9A37C",
"#X c #C0A678",
"$X c #BB7F80",
"%X c #7F8282",
"&X c #848583",
"*X c #8A8A84",
"=X c #8B8D8A",
"-X c #868987",
";X c #958C87",
":X c #8E908D",
">X c #92928D",
",X c #999685",
"<X c #8E9293",
"1X c #9B9D9B",
"2X c #969895",
"3X c #8A8E91",
"4X c #A69D86",
"5X c #A89997",
"6X c #B5908E",
"7X c #9DA09E",
"8X c #AAA383",
"9X c #AAA588",
"0X c #B7A787",
"qX c #A9A597",
"wX c #B4A995",
"eX c #BBB397",
"rX c #BCB48F",
"tX c #9A9EA3",
"yX c #9DA3A7",
"uX c #A3A5A3",
"iX c #ABADAB",
"pX c #A6A9A7",
"aX c #B6A9A5",
"sX c #B7B3AA",
"dX c #A9ADB1",
"fX c #ADB1B3",
"gX c #ADB4BB",
"hX c #B3B4B4",
"jX c #B6BABC",
"kX c #BBBCBC",
"lX c #B6B7B7",
"zX c #C39394",
"xX c #C4B899",
"cX c #C1AF96",
"vX c #C4B5AD",
"bX c #C9C5B9",
"nX c #C8C1A8",
"mX c #B9BDC1",
"MX c #BDC1C3",
"NX c #BCC4CA",
"BX c #C3C4C4",
"VX c #C4C6C9",
"CX c #C6C9CC",
"ZX c #CACBCC",
"AX c #CACAC5",
"SX c #CBCED1",
"DX c #C6CDD3",
"FX c #CED1D4",
"GX c #CFD6D8",
"HX c #D1D3D5",
"JX c #D3D6D9",
"KX c #D5D9DC",
"LX c #D9DBDB",
"PX c #D1D0CA",
"IX c #E8EAEC",
"UX c #DBDFE3",
/* pixels */
"i i 9 9 i i ` ` ` ` X...o.o.$.$.%.%.@.%.%.@.o.o.$.%.$.%.@.%.+.o.@.o.%.$.$.$.$.9.9.5.*.$.$.=.*.9.*.*.5.$.#.X.a u t 0 , - @ O     ",
"X.o.....o.o.#.%.$.*.@.@.$.@.*.$.*.9.*.9.4.4.$.4.5.0.9.5.5.4.$.+.4.4.9.9.5.9.r.w.0.0.9.$.%.5.0.*.$.$.*.9.*.o.a i u e 7 > - O     ",
"X.@.*.#.#.o.@.@.9.*.4.*.*.*.*.9.r.9.w.0.0.*.9.w.q.w.w.0.w.q.d.w.e.w.w.w.0.0.0.*.0.w.9.5.0.w.w.0.0.0.0.9.9.@.+.#.a u e 7 , - + X ",
"#.8.9.*.@.%.o.*.9.r.*.*.*.9.9.$.9.r.w.9.9.9.9.9.u.E.4XaXvXBXCXZXSXCXVXkXsXwX.X_.e.e.a.a.a.e.e.a.r.0.*.$.*.%.o.X.i i r 8 7 : @ O ",
"' i ` ` ` ` ` +.o.....o.@.@.@.o.@.$.$.4.$.j.9XkXDXFXHXJXHXJXJXJXHXHXHXHXFXHXZXSXBXaXXXd.w.a.e.e.a.e.p.0.p.0.0.9.@.] ` a e 7 , - ",
"i i ` ` ` ` ` ` ` ' ` ` ` ` ` ` i a a R.sXFXHXJXKXKXKXJXJXJXHXHXHXHXSXSXSXZXAXPXPXZXZXBX9Xu.5.5.%.%.;.%.o.-.;.....` ` i r 8 < : ",
"+.o.#.+.O.+.X.X.o.o.o.o.o.@.` ' i j.kXSXKXIXIXUXKXJXHXFXHXFXFXSXSXSXZXZXZXZXAXAXAXAXZXSXSXZX6Xw. ./ / ;.%.%.%.-.o.;.o...a i 8 7 ",
"@.o.+.X.+.@.*.*.$.o.o.....` i y.lXFXKXIXIXKXJXJXJXJXHXFXFXFXSXSXSXSXZXZXVXVXCXBXBXBXBXVXCXZXvXx.Q Q ( | C.C.C.a.C.C.C.e.r.*.X.u ",
"' i ' ' ' ` ` ..` ` ' ` i s ,XZXJXIXIXJXJXJXHXJXJXJXHXHXHXFXHXSXPXZXZXZXZXVXVXbXBXkXkXkXvXv.~ ~ _ zXA.( =.e.*.=.e.p.p.p.p.0.*.a ",
"X.o.#.#.@.#.$.@.@.o.O.u O.hXSXJXUXKXGXJXJXKXLXLXJXJXHXHXHXFXFXSXZXZXZXZXCXVXBXBXBXkXkXc./ Q ~ ~ ~ vXAXoXR a.p.p.p.p.Z.Z.S.C.p.r.",
"X.X.O.+.O.@.3.+.o.a u i.mXSXJXJXJXJXKXUXLXKXHXJXJXJXHXHXPXSXSXCXAXZXVXVXBXBXVXVXBXzX_ Q / c.$X/ ~ x.ZXZXv.| =.=.=.-.=.p.p.a.p.a.",
"] O.o.O.O.#.#.` a t N MXDXFXHXJXKXKXKXJXKXKXKXJXJXJXFXPXPXFXZXSXZXZXZXVXBXBXVXzX>.~ ~ / zXlXsXaXx.~ zXAXbX} Z.D.Z.C.s.K.K.K.K.J.",
"r r i i i r r 8 2 z mXVXFXFXHXJXJXJXJXJXKXKXKXKXLXJXHXHXFXSXZXVXVXVXCXCXCXvXv.~ Q x.zXzX>.hXhXiXfXc.x.kXAXc.f.d.p.a.Z.S.K.K.P.P.",
"r r u i i 8 8 < p lXBXDXSXSXHXJXHXJXJXKXKXKXKXLXJXJXHXHXsXl.s 8 d l.wXkXc./ Q Q Q v.lXlX>.$XfXdXfXpX5XqXkXBXx.0X*.=.p.a.S.Z.K.Z.",
"r e r u u 8 3 0 pXmXVXDXSXSXSXJXGXJXJXKXKXKXUXSXnXbX0Xq.9 9 ' $.4.u.1./ ~ ~ ) ) ~ / 5XfX6X_ iXiX6X6XuXuXiXkXzXc.d.0.w.s u.G.J.K.",
"8 8 8 8 7 < > ;XjXNXVXDXSXDXFXFXJXJXJXHXKXLXLXnXeX_.3.` 8 ' 9 0.f.( ~ ~ T s 6.z s W Y p s W g.pXuX) g.qXqXaXlXx.l.3.* & * H.S.s.",
"y e t e < > v fXjXMXVXCXZXFXGXGXGXPXPXGXLXbXnXxX@X*.8.B.u.q.w.} ~ Q Q ) A.i 2 7 8 1 L P < 1 ^ 5X5Xz.~ ) 6X1XuX2.U = 4 = & M 0.%.",
"s y y 0 : 3 7XiXkXMXNXCXZXDXFXFXGXPXLXPXnXxXxX#XL.#.8.q.d.1.~ Q Q Q Q f.r.=.9 + 2 1 1 L r r U E >X2X>.~ ~ <._ Q Q j K j 4 j.Z.s.",
"t e 7 : - Z pXhXjXMXBXCXCXDXFXGXGXPXbXxXxXxX#XL.m.a O.1./ Q Q Q Q Q ~ d.B.*...2 , e 8 U U u a ! ,.*Xl./ ~ Q Q W ,.yXtXV q.a.p.0.",
"e 0 , - 5 2XpXhXkXkXMXMXCXZXFXFXFXbXxXrXrXrX9XL.#.;.Y Q ~ I [ +.[ Y ~ d.B.4.r.] 8 r 8 2 ! r u P W i.2.~ ~ ~ 6 K mXIXpXz.a.C.a.a.",
"0 , > % z 2XpXfXlXkXMXBXCXZXDXDXAXrXrXrXeXeX9XB.T Q Q Q f.6 9 9 9 9 Y } q.8.q.u.q.8 8 8 ! U 7 1 ^ ^ Q ~ :.q B ZXIXMXbXeXC.a.A.A.",
"< > $ % !.1XpXfXhXlXkXMXMXCXCXDXeXrX9X9X9XOX2./ Q Q Q R i.i.2 I 9 2 I ~ u 8 3.t.u.8 8 8 ! ^ U I Q Q E z l k BXIXhXiXkXAXd.a.C.C.",
", - + w :X1XpXiXhXlXkXMXMXCXMX9XOX(.c g ;./ Q / [ E Q 2.y.3.Q Q Q ! ~ ~ E 3.;.9 3.< 8 P Q Q Q Q L 2 z k l tXUX>X!.1XlXZXXXA.H.H.",
"> @ O K :X1XuXiXfXhXkXkXMXMX(.h V.g w.( Q Q Q =.h s Q { h.] Q Q Q Q Y 2 Y { q.u 1 > 8 Y ~ ~ ! P - ; z j -XDX;Xk.D ;XhXBXsXG.G.`.",
"> + O F :X1XuXpXiXhXlXmXmXBX(.N.L.} Q Q / Q Q T OX^.| R T.x E Q Q Q t I.<.~ R [ 2 I ! Q ~ U 3 , > 3 l G iXk.h.h.A !.iXmXbXa.w.a.",
"+ X * G =X1XuXuXdXfXlXkXmXkXI.[ Y ! ( s.m.;.~ ~ s.L.V./ j.c O.Q Q Q j.|.{ Q Q Q Q Q Q E O.z w d t 4 B 2Xk.S C A V D uXmXSX%.%.%.",
"O   4 k.=X2X7XuXpXfXhXmXmXoX/ Q / T ( Z.n.f .XT / L.L.| R f I.| T [ 6.|.T Q Q Q Q Y 5.~.f x s x 4 l k.k.h.S C A m A 1XjXSX5.%.%.",
"X o q k.*X2X1X7XpXdXgX6X>.Q ~ Y n.K./ ;.f g ~.8.%.| L.V./ 1.I.x h t.M.z.Q Q Q ^ f.^.4Xt.x 6.x 4 4 M R.h.S A V V m V 2XlXSXXXd.d.",
"$ X j F -X2X2XtXuX5Xx.~ ~ ~ Q / C.V.s.! f f M.g h m.V.V.] Q  .6.T.4Xg.~ Q / 2.'.OX XT.6.x c 4 4 M 8.R.h.S A m m b m >XlXDX@XA.F.",
"$ X j H &X>X2X2Xg.~ ~ _ g.~ Q Q } K.&.T  .h c E ] U.M.f c ) Q Q / ~ ~ Q T _.4X9X9XR.t.c 6.4 = h.j.O.y.A i.V m m b m ;XfXDXzXF.`.",
"X   j H &X3Xz./ ~ ~ >.pX7X) ~ ~ ! Z.&.+.Q u h ,.Q  .N.c (.3.~ Q Q Q ) d.U. X'.Y.E.U.6.y * = !.t.j..XR.h.A m m n b m ;XhXVX0XA.F.",
"# X j C l._ Q Q g.5X_ 6X5Xj.~ ~ Q ( &.N. .} t.y.R Q T j.y.U ~ ~ ^ f.U.|.OX.Xm.8.g n.f w * 6.9X#.i R.E.A Z b m b v b ;XfXZX0X).F.",
"o   q E Q Q >.;X2X1Xz.>.4X^.<.Q Q Q ;.h ..Q ] c t.~ ~ ~ / Q Q 1.R.N..X X8XOX|.N.y y p w &.f &.r...B.^.A m m m b v n >XlXFXXXG.F.",
"o o 4 Q / l.-X3X2Xz._ ~ z.T.y.^ Q Q T &.8./ Y f f R ~ ~ Q <.j.x x 8.E.N.E.E.E.|.g q p c &.*.#...&.W.M.N n m v v v V 2XgXGXG.C.C.",
"X o = :.,.G -Xz._ Q ~ ~ ) T.M.1.~ Q E g V.! Q | T Q ~ Y 5.,Xf y.&.c t.8.B. XB.8.s y f 7.V.B.B.r.&.r.y.n n v v v z S 1XjXPXa.a.a.",
"    & k / C %Xl.~ 2.;X_ Q 2.U.R.1.{ h g $.! Q Q Q / | I.6.E.h U.M.t.|.9XOX|.7.f y y h #.r.W.W.W.m.*.N n v v v z z F pXMXbX*.5.=.",
"X   o j ,.:.%X%X!.;X<Xz.Q ~ f.t.I.^.I.c Y Q Q Q  .y.~.*X/.U.f t.^.B.OX8X9X|.f f M. XE.Y.8X|.'.W.Y.M.N v v v v v n Q.dXCXwXa.s.e.",
"X   . q k / l.G -X;Xz._ ~ Q ^ 1.j._.f./ Q Q E y.I.I.N M.N f y 6.M.7.^.U.U.B.f m.t.8.Y..XH.m.-.u.r.I.m v v v v v m 2XgXGX@X].[.[.",
"o . . = k z ) &X%X2.Q Q Q Q Q Q Q Q ~ ~ Y ] N./.N c y.N I.I.6.N.T.^.B.m.E.B.^.N.#.8.9X'.L.&.-.m.t.N n n v v v v F uXkXSXG.F.F.S.",
"X o . o j K E ,.%X%X^ Q Q Q Q Q Q ^ / 1.x c I.c 6.N.6.N.~.~.M.~.T.|.U.7.OXN.4XY.^.B.8XL.m.-.r.7.6.n n n n v v n *XdXCXsXG.G.G.F.",
"X X . . 4 k z _ H k.2.~ ~ ~ Q Q ~ { R.y.y.M.I.c /.T.T.~.U.t.^.|. XU.8X8.9XB.|.m.^.8X8XE.'.Y.7.8.x v m m v v v S 7XjXGXXXG.G.G.H.",
"# X X . o j K :.2.H &X/ ~ ~ ~ <.j.t.t.I.~.6.T.U.T.y.f M.U.8.4X9X|.B.9X|.qXeXY.7.E.9X_.E.OXB.&.M b m b b v v b *XdXCXnXD.F.D.).P.",
"    . . . 4 k B / l.R Q Q _ l.2X>Xy.I./.m.f T.R.U.~.g U.^.U.8X8XW.W.|.9X|.8.8.U.|.9XB. X8.&.x n m m m v v v F 7XjXJX{.D.K.K.Z.D.",
"  .   . . o l K ,.Q Q / l.%X<X<X<X,XT. XU.8.U.~.T.~.7.~.U.|.8X|.m.r.|.|.B.U.8.|.|.wX XB.&.x x m m n v b v Z 2XhXDXeX`.L.L.).L.].",
"        . . = k B E 1.k.b.*X*X>X:X2X,X X9X XW./.N.N.6. XW.OXOXOX7.m.eXOXE.^.B. X8X9X3.M.x n m m m n v v m *XiXMXPXG.J.L.G.a.a.G.",
"# o X X o o o q K B J G b.Q.Q.*X=X:X2X,X4X^.B. XU.U.OX8X'.OXOX'.8XwX0X|.|.U.B.qX8X^.t.y.n m m m n v v v Q.uXhXJXXXP.D.A.D.D.A.H.",
"+ O X X X # o & l K B H b.b.!.b.Q.=X:X>X2X,X(.|. XE. XOX'.9XOXL.Y.OXOXOXY.&.E. XM.7.c m m N m m n v v b.7XlXFXeX].G.G.K.G.G.H.F.",
"+ # # X O # # ; * k B V b.b.b.b.b.Q.Q.*X*X=X:X,X9X9XOX9XeXrXOX'.'.OX|.W.U.B.U.t.N N m m N m m n v n !.2XfXFXxX].].].).).G.G.G.F.",
"$ $ O $ + + + $ ; 5 k B J G k.H F Q.Q.&X&X&X*X*X>XqXqXsX9X|.|.L.'.W.U.M.y.N N N N Z Z V m m n n V !.pXhXSXbX}.[.[.}.}.}.].L.[.{.",
"# O # # + + + ; - ; w K J J G %XF F k.k.Q.Q.Q.Q.!.Q.*X(.(.I.!.b.b.A A N N m m V Z Z Z m m m b A >XpXjXGXvXJ.].P.K.P.].].].).G.G.",
"X X X X X X X + # - ; 5 k J H G %XG G F F F b.F D b.b.b.b.b.b.Z N N Z Z Z Z V Z m m V m m V Q.7XfXMXKXxX`.P.[.P.).P.).L.H.G.A.F.",
"X X             o X # $ > k J H G %X&X%XF F D F D b.D A Z Z Z Z m Z N V V V m b m n n V b.2XpXlXDXLXxX@X#X[.+X#X+X#X+X+X{.+X{.{.",
"$ # X X X X     X O + @ - > j J G G &X&X&X%XG H D D D Z Z D Z Z Z V V m V m m m m S b.2XpXgXMXLXPX@X+X+X+XXX+X+X+X#X+X#X+X+X{.{.",
"X O X + X X + X + + @ @ ; ; ; 3 B k.&X&X-X3X-X-Xb.b.b.D J Z Z Z m m B V V V D Q.:X7XiXgXMXJXJXcX[.}.XX}.[.[.[.[.K.P.P.].{.].].].",
"O #   X + X + + + + @ 1 - - > , : q C %X3X3X<X<X:X:X=X%X%Xb.b.b.b.b.b.=X<X1XtXdXfXmXNXJXHXcX{.[.[.}.}.}.].[.[.[.}.].}.].].].].L.",
"O ; X X X + X + + + + + + ; ; ; : : < q V -X<X2X2X1X1XtX7XyXyXyXdXyXpXdXdXgXmXNXDXHXnX0XS.A.).).S.F.G.`.J.G.`.`.J.P.J.J.P.L.K.K.",
"% % O O @ % @ O + + @ @ @ - ; : : , , 7 7 0 p D =XyXyXdXdXdXgXgXgXjXmXNXNXDXBXsXXXA.d.K.A.H.G.`.S.a.d.D.J.s.s.J.S.K.s.J.J.J.J.J.",
"- % @ % @ @ @ @ ; @ - @ 1 : : , , 0 0 0 7 e e y u s M i.!.;X5XqXuXqX5X.X_.u.0.a.e.e.A.F.F.F.G.G.d.d.Z.D.D.S.J.J.J.J.J.D.J.d.S.S.",
"- % % % @ @ @ @ @ @ @ @ @ - - - : : , , 0 0 y y t s s a a 3.3.6.N.r.u.u.w.w.u.F.A.A.G.].G.G.].].J.S.D.K.J.S.J.J.P.D.J.d.J.F.G.d.",
"% O + + + + O O @ + + + @ - - - > > : , 0 0 0 y t t s s s a O.O.#.3.4.r.q.A.u.d.d.H._.`.].].].{.].P.P.}.].J.K.}.}.[.}.].+X}.}.}.",
"- % % % % @ O @ % @ % % @ @ - - - > - , , , 0 e e e p u s a x O.O.3.+.$.4.w.9.r.w.w.d.e.w.w.5.s.p.a.s.d.s.s.J.d.d.d.F.J.J.`.`.J.",
"% % % % @ @ @ O @ @ % % @ - % - % > : , , , , 0 0 e t t u s a ] O.O.X.3.3.w.q.u.u.H.H.G.F.).`.G.G.`.J.F.J.J.[.[.`.J.F.d.d.F.d.d.",
"O O o X       O X X O O @ @ % % % > > > , , , 0 0 0 d t u s s 3.O.O.O.3.3.q.q.0.q.d.u.A.d.F.F.F.F.J.].G.].].[.}.[.`.[.`.`.[.`.`.",
"# # O O         O       X O O % @ % % - > , , 0 d y p s s s s a 3.3.3.4.3.q.q.d.d.A.A.H.C.A.F.`.F.`.[.F.P.`.}.}.`.[.[.`.`.`.J.]."
};
