/* XPM */
static char *_6a7ff3db07c4271ecb5bba45fdbf7af[] = {
/* columns rows colors chars-per-pixel */
"32 32 256 2 ",
"   c #2D1A0A",
".  c #331E0C",
"X  c #2E1F14",
"o  c #35210D",
"O  c #3B250E",
"+  c #3A2510",
"@  c #3D2912",
"#  c #362312",
"$  c #2F2217",
"%  c #3E332A",
"&  c #432C13",
"*  c #412D18",
"=  c #4C3416",
"-  c #493419",
";  c #513719",
":  c #533B1C",
">  c #5C3817",
",  c #643A1A",
"<  c #70311B",
"1  c #4F3C33",
"2  c #59411E",
"3  c #68451D",
"4  c #7B4A1B",
"5  c #5D4222",
"6  c #594229",
"7  c #494437",
"8  c #5D4C39",
"9  c #634521",
"0  c #654925",
"q  c #6B4B24",
"w  c #664C2A",
"e  c #6D572F",
"r  c #70522C",
"t  c #7C592B",
"y  c #775326",
"u  c #6B5A3E",
"i  c #6C5634",
"p  c #7A5A33",
"a  c #744F23",
"s  c #7A653A",
"d  c #4D4A44",
"f  c #59534B",
"g  c #5D5B57",
"h  c #514C44",
"j  c #675949",
"k  c #645952",
"l  c #72514E",
"z  c #796A43",
"x  c #6E6555",
"c  c #6F6859",
"v  c #68635A",
"b  c #736A54",
"n  c #726B5B",
"m  c #7B6C56",
"M  c #75705E",
"N  c #7D7357",
"B  c #6A6B67",
"V  c #736E61",
"C  c #767162",
"Z  c #7B7669",
"A  c #7A7567",
"S  c #6F7170",
"D  c #747574",
"F  c #7D7C73",
"G  c #7D7E79",
"H  c #84381D",
"J  c #90281D",
"K  c #B2201E",
"L  c #AC231D",
"P  c #B71F20",
"I  c #812F2F",
"U  c #903C23",
"Y  c #90362F",
"T  c #AE2E2D",
"R  c #BC2A25",
"E  c #BE312B",
"W  c #B4342A",
"Q  c #AA3D38",
"!  c #B33C34",
"~  c #BB3834",
"^  c #CD191F",
"/  c #CC1B21",
"(  c #C52324",
")  c #C92325",
"_  c #C8292E",
"`  c #C5292A",
"'  c #C3372E",
"]  c #CA2D32",
"[  c #C42E33",
"{  c #C83439",
"}  c #835D2D",
"|  c #825926",
" . c #8E5937",
".. c #935A3A",
"X. c #914A34",
"o. c #A84835",
"O. c #B64A39",
"+. c #AE5C3B",
"@. c #B25132",
"#. c #AD452F",
"$. c #86602E",
"%. c #846235",
"&. c #8A6534",
"*. c #84633C",
"=. c #896639",
"-. c #8D6A3A",
";. c #936D3D",
":. c #996D3B",
">. c #83723A",
",. c #8B7039",
"<. c #94703D",
"1. c #9A733F",
"2. c #C04335",
"3. c #BB3D40",
"4. c #C43B40",
"5. c #9A4942",
"6. c #935956",
"7. c #8D4849",
"8. c #B64A47",
"9. c #A65645",
"0. c #AD4F50",
"q. c #A05152",
"w. c #B5514D",
"e. c #8A6A43",
"r. c #866A4C",
"t. c #956B47",
"y. c #847549",
"u. c #897448",
"i. c #957242",
"p. c #9B7544",
"a. c #947D45",
"s. c #927A4D",
"d. c #9C794A",
"f. c #94754B",
"g. c #8C7455",
"h. c #837853",
"j. c #897B54",
"k. c #877E5C",
"l. c #9D7C52",
"z. c #977855",
"x. c #986750",
"c. c #A66844",
"v. c #A37C45",
"b. c #A37B4B",
"n. c #A07744",
"m. c #B16F5A",
"M. c #897A66",
"N. c #8A7C78",
"B. c #977A78",
"V. c #906E6D",
"C. c #B66667",
"Z. c #B57779",
"A. c #A66C68",
"S. c #CA5459",
"D. c #C36A69",
"F. c #C37175",
"G. c #7F807A",
"H. c #8D825C",
"J. c #8D885A",
"K. c #92845B",
"L. c #9B8358",
"P. c #99895C",
"I. c #978656",
"U. c #8B844D",
"Y. c #A5804D",
"T. c #AC854E",
"R. c #A48253",
"E. c #AB8555",
"W. c #AC865A",
"Q. c #AD8A5B",
"!. c #A68559",
"~. c #B18D5C",
"^. c #8B8365",
"/. c #8B876B",
"(. c #958262",
"). c #948C6C",
"_. c #9A8C67",
"`. c #9D916D",
"'. c #82837D",
"]. c #89887F",
"[. c #878174",
"{. c #968D7A",
"}. c #9A9678",
"|. c #A98E69",
" X c #B18E62",
".X c #AF9160",
"XX c #A4946A",
"oX c #B39264",
"OX c #B6996A",
"+X c #B99B6C",
"@X c #B59768",
"#X c #A78973",
"$X c #B88375",
"%X c #A49A74",
"&X c #A49D7C",
"*X c #A99976",
"=X c #B59972",
"-X c #848683",
";X c #8C8B84",
":X c #898B8A",
">X c #978E88",
",X c #9D9B8C",
"<X c #94928A",
"1X c #8E9292",
"2X c #929594",
"3X c #9A9996",
"4X c #999B9A",
"5X c #BB8788",
"6X c #A89B86",
"7X c #B39E84",
"8X c #AE9593",
"9X c #9FA19F",
"0X c #AAA282",
"qX c #A7A082",
"wX c #B4A489",
"eX c #A1A19D",
"rX c #AFA09D",
"tX c #B8A99A",
"yX c #B7A995",
"uX c #BEB79C",
"iX c #B5B08D",
"pX c #A3A5A3",
"aX c #A7AAA9",
"sX c #ABADAC",
"dX c #B8AAA8",
"fX c #B1B1AD",
"gX c #AEB1B3",
"hX c #B7B9BA",
"jX c #BCBDBD",
"kX c #B4B5B4",
"lX c #B4AEB2",
"zX c #C78486",
"xX c #C3B79A",
"cX c #C0A987",
"vX c #C2B6A5",
"bX c #C4AFB0",
"nX c #C3BCBA",
"mX c #BCC0BF",
"MX c #C5C3BF",
"NX c #CAC4B6",
"BX c #BBBEC1",
"VX c #BEC2C4",
"CX c #C3C4C3",
"ZX c #C4C6C9",
"AX c #CACBCD",
"SX c #C7C9C8",
"DX c #CED0CF",
"FX c #D2D3CC",
"GX c #CCCFD1",
"HX c #CED1D4",
"JX c #D1D3D5",
"KX c #D3D6D9",
"LX c #D6D9DC",
"PX c #D9DBDE",
"IX c #DBDEE1",
"UX c #DEE1E3",
/* pixels */
"} | $.$.&.&.;.<.;.;.;.-.:.;.;.-.;.t.i.i.p.t.:.1.;.t.=.t w ; O   ",
"-.<.-.-.i.<.i.<.p.f.i.f.l.#X6XwXwX6X#XL.d.n.d.d.p.<.<.&.t 0 ; O ",
"t } } $.$.$.&.$.$.f.6XMXKXKXKXJXJXJXJXFXMXtX!.n.p.:.:.<.&.t 0 = ",
"=.=.=.-.&.&.&.%.6XKXUXIXKXJXJXGXGXAXAXCXCXAXAX$X` #.1.1.1.<.=.y ",
"%.$.$.=.&.$.g.CXIXPXKXKXKXJXJXJXGXSXAXCXMXbXS.^ D.$Xc.n.v.Y.v.<.",
"%.=.=.=.p M.AXJXLXPXPXKXKXJXDXDXAXSXCXnXD./ Z.5X] NXD.v.v.Y.T.T.",
"a y y 3 m VXHXKXKXKXLXKXKXJXkX{.6XjXzX] { dXF.fXrX5XbXm.n.Y.E.Q.",
"q q 9 8 BXZXHXHXKXKXPXFXxXz.4 $.c.` T 5.T A.0.8X$X8XfXzXf.8 u.E.",
"e w ; 3XVXZXGXHXHXKXNXxXL.s.d.~ / ] i.> > J , 8.3X_ C.w.I d j c.",
"w ; j fXjXVXAXHXDXuXuXOX-.#.( W R O.s.| 0 < U U 6.3./ Y lX>Xd.n.",
": @ -XfXhXVXZXHXuXiXiXm.( / r.H 4 W *.g.*.3 P H / T l kXCXnXY.R.",
"= 1 2XaXkXVXVX}.J.;.E R X.~ r./ ^ K o.} 9 H / P < k :X9X].BX=XQ.",
"O f 2XpXlXhXBXj.O.' #.) |.O.h.W ^ M.' ` L ` X.9 6 S -XM.Z kX7Xi.",
". v 2XeXsXlXD.( +.@.>.z.+.R.o.g...(.) ^ 8.(.z u h N.Z C C aXtXp.",
"o v 1X3XZ.{ ] / v.@.$.e.y.U.o.! w.[ ~ |.%Xj.z d u.M.A n c pXvXW.",
". v V.[ 4.C.Z./ ' u.#.r.W x.t./ ' m.%XP.J.i 7 ).z.M.V c c pXvXW.",
"X Y [ B.,X4.>X! ^  .#. .o./ ` 9.j.`.%X`.e u >.,.U.^.c c c pXvXE.",
"  1 6.B.[ { 8.z.~ %.o.` ` o.(.y.y.`.%Xy.e s P.P.a.m b x n gX7Xn.",
". % 7.N.;XC./ 9._.c.( W g./.H.z J.%X`.>.I._.XXI.I.b x x F VX=XW.",
"X X k q.N./ ^ ^ ^ E  .^.h.h./.J.}.U.`.`.I.*XU.a.N b x x 2XMXQ.E.",
".   1 7.V.0.^ ) 9.(.H.H.).H.H.&X`.%XqXP.&XXX`.u.b n b A kXyX~.~.",
"    $ g Q ` 0.>X;X).y.).).H._.qXP.%XP.I.qX`.,.b n c c 3XCX.XQ.Q.",
". . X 1 l N.G.;X<X,XqX`.J.%X%X%XXX0XXX}.qXj.b n c x ].mX7XQ.E.!.",
"# . # $ h S G.G.].:X1X}.&X&XiX%X%X%XI.).h.M m n c [.kXxX.XQ.Q.Q.",
"+ # O & * g S G G N.-X].;X,X}.).^.^.N n V M n n ;XmXvX@XoX@XoXoX",
". . . . + * f D -XG G D G.G.F A M C V M M n N.eXZXxX+X+X+XOXoX.X",
"# . . . o O - 8 F -X-X'.Z Z A C V V V D '.4XBXSXiX+X+X+XOX+X+X@X",
"O . . O O & & = : k -X2X2X2X2X1X2X4XpXgXVXNXwXoX X@XoXoXoXoX X.X",
"& O @ @ & & & = : 2 5 j M.;X4XaXsXsXyX*X!.W.E.~.b.E.E.~.~.E.~.E.",
"O @ O O O O & & - : 5 r r p *.r.u.d.l.l.l. XoXoX X~.~.~.oX~.oXoX",
"& @ @ O @ @ & & - = : 5 9 i p p *.e.t.s.l.E.b.l.E.E.E. XW.W.~.W.",
"O .     o o o + & * ; 2 0 i p *.=.e.i.d.l.!.W.W.~. X X+XoXoX X X"
};
